<svg width="18" height="18" viewBox="0 0 18 18" fill="none" xmlns="http://www.w3.org/2000/svg">
<path d="M17.1077 6.39211L8.07961 15.4202C7.86865 15.6311 7.58262 15.7495 7.28437 15.7495C6.98613 15.7495 6.7001 15.6311 6.48914 15.4202L1.45336 10.3577C1.24275 10.1468 1.12447 9.86092 1.12447 9.56285C1.12447 9.26479 1.24275 8.9789 1.45336 8.76797L2.85961 7.36172C3.07045 7.15176 3.35588 7.03388 3.65344 7.03388C3.95099 7.03388 4.23642 7.15176 4.44727 7.36172L7.3125 10.1405L14.1159 3.42071C14.3268 3.21053 14.6124 3.09251 14.9101 3.09251C15.2078 3.09251 15.4934 3.21053 15.7043 3.42071L17.107 4.79461C17.2125 4.89915 17.2963 5.02354 17.3534 5.1606C17.4106 5.29767 17.4401 5.4447 17.4402 5.59322C17.4402 5.74173 17.4109 5.88879 17.3538 6.0259C17.2968 6.16302 17.2131 6.28748 17.1077 6.39211Z" fill="#444444"/>
</svg>
